<svg width="44" height="26" viewBox="0 0 44 26" fill="none" xmlns="http://www.w3.org/2000/svg">
<path d="M36.5121 14.9091C35.8007 13.9991 36.0042 13.5943 36.5121 12.7809C36.5213 12.7716 42.3936 4.55186 42.9987 1.76429L43.0023 1.76243C43.303 0.746571 43.0023 0 41.5484 0H36.7376C35.5129 0 34.9482 0.640714 34.6457 1.35757C34.6457 1.35757 32.1963 7.29671 28.7312 11.1466C27.6128 12.259 27.0958 12.6156 26.4853 12.6156C26.1846 12.6156 25.7171 12.259 25.7171 11.2431V1.76243C25.7171 0.544143 25.3742 0 24.3603 0H16.7957C16.0276 0 15.571 0.568286 15.571 1.09757C15.571 2.25271 17.3036 2.51829 17.4833 5.76829V12.8199C17.4833 14.365 17.2064 14.6491 16.5922 14.6491C14.9569 14.6491 10.9875 8.68586 8.6353 1.86086C8.16045 0.536714 7.6966 0.00185701 6.46272 0.00185701H1.65006C0.276843 0.00185701 0 0.642571 0 1.35943C0 2.626 1.63539 8.92357 7.60493 17.2436C11.5834 22.9227 17.1863 26 22.2831 26C25.3467 26 25.7207 25.3166 25.7207 24.141C25.7207 18.7144 25.4439 18.2019 26.9784 18.2019C27.6898 18.2019 28.9145 18.5584 31.7746 21.2977C35.0435 24.5459 35.5807 26 37.4105 26H42.2213C43.5927 26 44.2875 25.3166 43.8879 23.9683C42.973 21.1324 36.7908 15.2991 36.5121 14.9091Z" fill="white"/>
</svg>
